<svg width="448" height="448" viewBox="0 0 448 448" fill="none" xmlns="http://www.w3.org/2000/svg">
<g filter="url(#filter0_d_2315_1326)">
<rect x="4" width="440" height="440" rx="100" fill="white"/>
<rect x="9" y="5" width="430" height="430" rx="95" stroke="black" stroke-width="10"/>
<path d="M125.76 275.4C115.12 275.4 105.507 273.16 96.92 268.68C88.3333 264.013 81.0533 257.853 75.08 250.2C69.1067 242.36 64.5333 233.493 61.36 223.6C58.1867 213.52 56.6 203.067 56.6 192.24C56.6 177.12 59.68 162.56 65.84 148.56C72 134.373 80.3067 121.68 90.76 110.48C101.4 99.0933 113.347 90.1333 126.6 83.6C140.04 77.0667 154.04 73.8 168.6 73.8C186.893 73.8 201.08 77.8133 211.16 85.84C221.427 93.8667 228.333 104.32 231.88 117.2L209.76 130.64C206.773 119.067 201.173 110.48 192.96 104.88C184.747 99.28 174.853 96.48 163.28 96.48C152.267 96.48 141.813 99.1867 131.92 104.6C122.213 110.013 113.627 117.293 106.16 126.44C98.6933 135.4 92.8133 145.48 88.52 156.68C84.2267 167.88 82.08 179.267 82.08 190.84C82.08 202.227 84.1333 212.587 88.24 221.92C92.3467 231.253 98.1333 238.72 105.6 244.32C113.253 249.92 122.213 252.72 132.48 252.72C143.12 252.72 153.853 249.827 164.68 244.04C175.507 238.253 186.52 229.387 197.72 217.44L192.4 243.48C181.573 254.307 170.653 262.333 159.64 267.56C148.627 272.787 137.333 275.4 125.76 275.4ZM199.96 193.92H159.36L163.56 174.88H225.16L204.16 274H182.88L199.96 193.92Z" fill="black"/>
<path d="M257.88 175.2H323.68C340.48 175.2 354.293 178.653 365.12 185.56C375.947 192.28 383.973 201.427 389.2 213C394.427 224.387 397.04 237.267 397.04 251.64C397.04 269.187 394.147 285.427 388.36 300.36C382.573 315.293 374.453 328.267 364 339.28C353.733 350.293 341.507 358.88 327.32 365.04C313.32 371.013 298.013 374 281.4 374H215.6L257.88 175.2ZM286.16 351.6C299.227 351.6 310.987 348.987 321.44 343.76C331.893 338.533 340.76 331.44 348.04 322.48C355.507 313.52 361.2 303.347 365.12 291.96C369.04 280.387 371 268.253 371 255.56C371 244.173 369.04 234.187 365.12 225.6C361.2 216.827 355.413 210.013 347.76 205.16C340.107 200.12 330.493 197.6 318.92 197.6H278.32L245.56 351.6H286.16Z" fill="black"/>
</g>
<defs>
<filter id="filter0_d_2315_1326" x="0" y="0" width="448" height="448" filterUnits="userSpaceOnUse" color-interpolation-filters="sRGB">
<feFlood flood-opacity="0" result="BackgroundImageFix"/>
<feColorMatrix in="SourceAlpha" type="matrix" values="0 0 0 0 0 0 0 0 0 0 0 0 0 0 0 0 0 0 127 0" result="hardAlpha"/>
<feOffset dy="4"/>
<feGaussianBlur stdDeviation="2"/>
<feComposite in2="hardAlpha" operator="out"/>
<feColorMatrix type="matrix" values="0 0 0 0 0 0 0 0 0 0 0 0 0 0 0 0 0 0 0.25 0"/>
<feBlend mode="normal" in2="BackgroundImageFix" result="effect1_dropShadow_2315_1326"/>
<feBlend mode="normal" in="SourceGraphic" in2="effect1_dropShadow_2315_1326" result="shape"/>
</filter>
</defs>
</svg>
